<svg aria-hidden="true" style="position: absolute; width: 0; height: 0; overflow: hidden;" version="1.1" xmlns="http://www.w3.org/2000/svg" xmlns:xlink="http://www.w3.org/1999/xlink">
<defs>
<symbol id="icon-display01" viewBox="0 0 169 32">
<path stroke-linejoin="miter" stroke-linecap="butt" stroke-miterlimit="10" stroke-width="9.1429" stroke="#000" d="M16.889 7.826h135.368c4.822 0 8.731 4.244 8.731 9.48s-3.91 9.48-8.731 9.48h-135.368c-4.822 0-8.731-4.244-8.731-9.48s3.909-9.48 8.731-9.48z"></path>
</symbol>
<symbol id="icon-Vector-6" viewBox="0 0 27 32">
<path stroke-linejoin="miter" stroke-linecap="round" stroke-miterlimit="4" stroke-width="7.1073" d="M15.356 16.395c-0.607 1.495-1.213 3.149-2.903 4.016-1.383 0.71-3.302 0.201-5.072-0.186-2.542-0.556-5.008-1.365-7.204-2.811-0.517-0.341-1.174-1.013-1.591-1.44-0.814-0.833-1.656-1.468-2.711-2.107-1.029-0.624-0.337-1.817-0.885-2.65"></path>
</symbol>
<symbol id="icon-facebook" viewBox="0 0 32 32">
<path d="M22.4 2.667h-4c-1.768 0-3.464 0.702-4.714 1.953s-1.953 2.946-1.953 4.714v4h-4v5.333h4v10.667h5.333v-10.667h4l1.333-5.333h-5.333v-4c0-0.354 0.14-0.693 0.391-0.943s0.589-0.391 0.943-0.391h4v-5.333z"></path>
</symbol>
<symbol id="icon-file-download" viewBox="0 0 24 32">
<path d="M14.088 8.425v-8.425h-12.579c-0.836 0-1.509 0.663-1.509 1.487v28.743c0 0.824 0.673 1.487 1.509 1.487h21.132c0.836 0 1.509-0.663 1.509-1.487v-20.318h-8.553c-0.83 0-1.509-0.669-1.509-1.487zM18.896 21.518l-6.064 5.928c-0.418 0.409-1.094 0.409-1.512 0l-6.064-5.928c-0.638-0.624-0.191-1.695 0.708-1.695h4.099v-4.956c0-0.548 0.45-0.991 1.006-0.991h2.013c0.556 0 1.006 0.444 1.006 0.991v4.956h4.099c0.898 0 1.346 1.071 0.709 1.695zM23.711 6.504l-6.157-6.071c-0.283-0.279-0.667-0.434-1.069-0.434h-0.384v7.929h8.050v-0.378c0-0.39-0.157-0.768-0.44-1.047z"></path>
</symbol>
<symbol id="icon-Group-93" viewBox="0 0 405 32">
<path fill="#06071b" style="fill: var(--color2, #06071b)" d="M32 16c0 8.837-7.163 16-16 16s-16-7.163-16-16c0-8.837 7.163-16 16-16s16 7.163 16 16z"></path>
<path fill="#939eac" style="fill: var(--color3, #939eac)" d="M181.333 16c0 8.837-7.163 16-16 16s-16-7.163-16-16c0-8.837 7.163-16 16-16s16 7.163 16 16z"></path>
<path fill="#939eac" style="fill: var(--color3, #939eac)" d="M330.667 16c0 8.837-7.163 16-16 16s-16-7.163-16-16c0-8.837 7.163-16 16-16s16 7.163 16 16z"></path>
<path fill="#939eac" style="fill: var(--color3, #939eac)" d="M106.667 16c0 8.837-7.163 16-16 16s-16-7.163-16-16c0-8.837 7.163-16 16-16s16 7.163 16 16z"></path>
<path fill="#939eac" style="fill: var(--color3, #939eac)" d="M256 16c0 8.837-7.163 16-16 16s-16-7.163-16-16c0-8.837 7.163-16 16-16s16 7.163 16 16z"></path>
<path fill="#939eac" style="fill: var(--color3, #939eac)" d="M405.333 16c0 8.837-7.163 16-16 16s-16-7.163-16-16c0-8.837 7.163-16 16-16s16 7.163 16 16z"></path>
</symbol>
<symbol id="icon-modal1" viewBox="0 0 32 32">
<path d="M26.706 9.022c0.187 0.188 0.294 0.441 0.294 0.706v19.272c0 0.553-0.447 1-1 1h-20c-0.553 0-1-0.447-1-1v-26c0-0.553 0.447-1 1-1h13.272c0.266 0 0.522 0.106 0.709 0.294l6.725 6.728zM24.694 10.188l-5.881-5.881v5.881h5.881zM10 15.063c-0.066 0-0.13 0.026-0.177 0.073s-0.073 0.11-0.073 0.177v1.5c0 0.066 0.026 0.13 0.073 0.177s0.11 0.073 0.177 0.073h12c0.066 0 0.13-0.026 0.177-0.073s0.073-0.11 0.073-0.177v-1.5c0-0.066-0.026-0.13-0.073-0.177s-0.11-0.073-0.177-0.073h-12zM10 19.312c-0.066 0-0.13 0.026-0.177 0.073s-0.073 0.11-0.073 0.177v1.5c0 0.066 0.026 0.13 0.073 0.177s0.11 0.073 0.177 0.073h5.75c0.066 0 0.13-0.026 0.177-0.073s0.073-0.11 0.073-0.177v-1.5c0-0.066-0.026-0.13-0.073-0.177s-0.11-0.073-0.177-0.073h-5.75z"></path>
</symbol>
<symbol id="icon-modal2" viewBox="0 0 32 32">
<path d="M11 18.876v-1.876h2v1.876c0 0.164 0.020 0.327 0.060 0.486l0.8 3.196-1.86 1.24-1.86-1.24 0.8-3.196c0.040-0.159 0.060-0.322 0.060-0.486z"></path>
<path d="M18.586 0h-10.586c-1.061 0-2.078 0.421-2.828 1.172s-1.172 1.768-1.172 2.828v24c0 1.061 0.421 2.078 1.172 2.828s1.768 1.172 2.828 1.172h16c1.061 0 2.078-0.421 2.828-1.172s1.172-1.768 1.172-2.828v-18.586c-0-0.53-0.211-1.039-0.586-1.414l-7.414-7.414c-0.375-0.375-0.884-0.586-1.414-0.586v0zM19 7v-4l6 6h-4c-0.53 0-1.039-0.211-1.414-0.586s-0.586-0.884-0.586-1.414zM11 6v-2h-2v-2h3v2h2v2h-2v2h2v2h-2v2h2v2h-3v-2h-2v-2h2v-2h-2v-2h2zM11 15h2c0.53 0 1.039 0.211 1.414 0.586s0.586 0.884 0.586 1.414v1.876l0.8 3.198c0.1 0.4 0.073 0.821-0.076 1.206s-0.413 0.714-0.756 0.942l-1.86 1.24c-0.328 0.219-0.714 0.336-1.109 0.336s-0.78-0.117-1.109-0.336l-1.86-1.24c-0.343-0.229-0.607-0.558-0.755-0.943s-0.175-0.805-0.075-1.206l0.8-3.198v-1.876c0-0.53 0.211-1.039 0.586-1.414s0.884-0.586 1.414-0.586z"></path>
</symbol>
<symbol id="icon-modal3" viewBox="0 0 32 32">
<path d="M26.749 24.93c1.436-1.728 2.435-3.776 2.912-5.972s0.418-4.474-0.171-6.642c-0.59-2.168-1.693-4.162-3.216-5.814s-3.422-2.912-5.535-3.675c-2.113-0.763-4.379-1.005-6.606-0.707s-4.349 1.129-6.187 2.421-3.338 3.008-4.373 5.002c-1.035 1.994-1.574 4.209-1.572 6.455 0.001 3.266 1.152 6.428 3.251 8.93l-0.020 0.017c0.070 0.084 0.15 0.156 0.222 0.239 0.090 0.103 0.187 0.2 0.28 0.3 0.28 0.304 0.568 0.596 0.87 0.87 0.092 0.084 0.187 0.162 0.28 0.242 0.32 0.276 0.649 0.538 0.99 0.782 0.044 0.030 0.084 0.069 0.128 0.1v-0.012c2.342 1.648 5.136 2.533 8 2.533s5.658-0.885 8-2.533v0.012c0.044-0.031 0.083-0.070 0.128-0.1 0.34-0.245 0.67-0.506 0.99-0.782 0.093-0.080 0.188-0.159 0.28-0.242 0.302-0.275 0.59-0.566 0.87-0.87 0.093-0.1 0.189-0.197 0.28-0.3 0.071-0.083 0.152-0.155 0.222-0.24l-0.022-0.016zM16 8c0.89 0 1.76 0.264 2.5 0.758s1.317 1.197 1.657 2.020 0.43 1.727 0.256 2.6c-0.174 0.873-0.602 1.675-1.232 2.304s-1.431 1.058-2.304 1.232c-0.873 0.174-1.778 0.084-2.6-0.256s-1.525-0.917-2.020-1.657c-0.495-0.74-0.758-1.61-0.758-2.5 0-1.193 0.474-2.338 1.318-3.182s1.988-1.318 3.182-1.318zM8.007 24.93c0.017-1.313 0.551-2.567 1.485-3.489s2.194-1.44 3.508-1.441h6c1.313 0.001 2.573 0.518 3.508 1.441s1.468 2.176 1.485 3.489c-2.193 1.976-5.041 3.070-7.993 3.070s-5.8-1.094-7.993-3.070z"></path>
</symbol>
<symbol id="icon-modal4" viewBox="0 0 32 32">
<path d="M28 26.667v-18.667c0-1.471-1.196-2.667-2.667-2.667h-2.667v-2.667h-2.667v2.667h-8v-2.667h-2.667v2.667h-2.667c-1.471 0-2.667 1.196-2.667 2.667v18.667c0 1.471 1.196 2.667 2.667 2.667h18.667c1.471 0 2.667-1.196 2.667-2.667zM12 24h-2.667v-2.667h2.667v2.667zM12 18.667h-2.667v-2.667h2.667v2.667zM17.333 24h-2.667v-2.667h2.667v2.667zM17.333 18.667h-2.667v-2.667h2.667v2.667zM22.667 24h-2.667v-2.667h2.667v2.667zM22.667 18.667h-2.667v-2.667h2.667v2.667zM25.333 12h-18.667v-2.667h18.667v2.667z"></path>
</symbol>
<symbol id="icon-modal5" viewBox="0 0 32 32">
<path d="M28.005 2.672h-24c-0.707 0.002-1.384 0.284-1.883 0.783s-0.781 1.177-0.783 1.883v16c0.002 0.707 0.284 1.384 0.783 1.883s1.177 0.781 1.883 0.783h9.333v2.667h-2.667v2.667h10.667v-2.667h-2.667v-2.667h9.333c0.707-0.002 1.384-0.284 1.883-0.783s0.781-1.177 0.783-1.883v-16c-0.002-0.707-0.284-1.384-0.783-1.883s-1.177-0.781-1.883-0.783zM14.341 18.227h-0.001l-6.333-6.333 1.887-1.884 4.448 4.448 7.78-7.781 1.887 1.887-9.667 9.664z"></path>
</symbol>
<symbol id="icon-modal6" viewBox="0 0 32 32">
<path d="M16 29.333c-1.822 0-3.544-0.35-5.167-1.051s-3.039-1.655-4.249-2.867c-1.212-1.211-2.167-2.627-2.867-4.249s-1.051-3.344-1.051-5.167c0-1.844 0.35-3.572 1.051-5.183s1.655-3.023 2.867-4.233c1.211-1.212 2.627-2.168 4.249-2.868s3.344-1.049 5.167-1.049c1.844 0 3.572 0.35 5.183 1.049s3.023 1.656 4.233 2.868c1.212 1.211 2.167 2.622 2.867 4.233s1.051 3.338 1.051 5.183c0 1.822-0.35 3.544-1.051 5.167s-1.655 3.039-2.867 4.249c-1.211 1.212-2.622 2.167-4.233 2.867s-3.338 1.051-5.183 1.051zM16 26.6c0.578-0.8 1.078-1.633 1.5-2.5s0.767-1.789 1.033-2.767h-5.067c0.267 0.978 0.611 1.9 1.033 2.767s0.922 1.7 1.5 2.5zM12.533 26.067c-0.4-0.733-0.75-1.495-1.049-2.284s-0.551-1.605-0.751-2.449h-3.933c0.644 1.111 1.45 2.078 2.416 2.9s2.073 1.433 3.317 1.833zM19.467 26.067c1.244-0.4 2.35-1.011 3.316-1.833s1.773-1.789 2.417-2.9h-3.933c-0.2 0.844-0.45 1.661-0.749 2.449s-0.651 1.551-1.051 2.284zM5.667 18.667h4.533c-0.067-0.444-0.117-0.884-0.151-1.317s-0.049-0.883-0.049-1.349c0-0.467 0.016-0.916 0.049-1.349s0.084-0.873 0.151-1.317h-4.533c-0.111 0.444-0.195 0.884-0.251 1.317s-0.083 0.883-0.083 1.349c0 0.467 0.028 0.916 0.083 1.349s0.14 0.873 0.251 1.317zM12.867 18.667h6.267c0.067-0.444 0.117-0.884 0.151-1.317s0.049-0.883 0.049-1.349c0-0.467-0.016-0.916-0.049-1.349s-0.084-0.873-0.151-1.317h-6.267c-0.067 0.444-0.116 0.884-0.149 1.317s-0.051 0.883-0.051 1.349c0 0.467 0.017 0.916 0.051 1.349s0.083 0.873 0.149 1.317zM21.8 18.667h4.533c0.111-0.444 0.195-0.884 0.251-1.317s0.083-0.883 0.083-1.349c0-0.467-0.028-0.916-0.083-1.349s-0.14-0.873-0.251-1.317h-4.533c0.067 0.444 0.116 0.884 0.149 1.317s0.051 0.883 0.051 1.349c0 0.467-0.017 0.916-0.051 1.349s-0.083 0.873-0.149 1.317zM21.267 10.667h3.933c-0.644-1.111-1.45-2.078-2.417-2.9s-2.072-1.433-3.316-1.833c0.4 0.733 0.75 1.494 1.051 2.283s0.549 1.606 0.749 2.451zM13.467 10.667h5.067c-0.267-0.978-0.611-1.9-1.033-2.767s-0.922-1.7-1.5-2.5c-0.578 0.8-1.078 1.633-1.5 2.5s-0.767 1.789-1.033 2.767zM6.8 10.667h3.933c0.2-0.844 0.45-1.661 0.751-2.451s0.649-1.549 1.049-2.283c-1.244 0.4-2.35 1.011-3.317 1.833s-1.772 1.789-2.416 2.9z"></path>
</symbol>
<symbol id="icon-modal7" viewBox="0 0 32 32">
<path d="M26.807 25.481c-0.038 0.681-0.335 1.321-0.83 1.789s-1.151 0.729-1.833 0.729h-16.288c-0.682 0-1.337-0.261-1.833-0.729s-0.792-1.109-0.83-1.789l-1.037-18.667c-0.020-0.362 0.034-0.724 0.158-1.065s0.317-0.652 0.567-0.915c0.249-0.263 0.549-0.473 0.882-0.617s0.692-0.217 1.054-0.218h18.363c0.363 0 0.722 0.074 1.055 0.217s0.634 0.353 0.883 0.617c0.249 0.263 0.442 0.575 0.567 0.916s0.179 0.703 0.159 1.065l-1.037 18.667zM22.829 11.853c0.547-0.36 0.684-1.074 0.235-1.539-0.761-0.785-1.65-1.435-2.63-1.921-1.36-0.675-2.854-1.036-4.372-1.058-1.519-0.025-3.025 0.29-4.407 0.921-0.996 0.455-1.908 1.077-2.697 1.837-0.465 0.451-0.353 1.168 0.181 1.545l2.875 2.031c0.533 0.377 1.285 0.255 1.838-0.097 0.143-0.091 0.291-0.171 0.445-0.241 0.491-0.224 1.023-0.343 1.563-0.349l2.262-2.601c0.116-0.133 0.28-0.215 0.457-0.228 0.087-0.006 0.175 0.005 0.258 0.033s0.16 0.072 0.226 0.129 0.12 0.127 0.159 0.206c0.039 0.078 0.062 0.164 0.068 0.251s-0.005 0.175-0.033 0.258-0.072 0.16-0.129 0.226l-1.755 2.017c0.238 0.098 0.465 0.221 0.677 0.365 0.54 0.369 1.287 0.513 1.833 0.153l2.945-1.939z"></path>
</symbol>
<symbol id="icon-modal8" viewBox="0 0 32 32">
<path d="M13.5 0h5c0.831 0 1.5 0.669 1.5 1.5v10.5h5.481c1.112 0 1.669 1.344 0.881 2.131l-9.506 9.513c-0.469 0.469-1.238 0.469-1.706 0l-9.519-9.513c-0.787-0.787-0.231-2.131 0.881-2.131h5.488v-10.5c0-0.831 0.669-1.5 1.5-1.5zM32 23.5v7c0 0.831-0.669 1.5-1.5 1.5h-29c-0.831 0-1.5-0.669-1.5-1.5v-7c0-0.831 0.669-1.5 1.5-1.5h9.169l3.062 3.063c1.256 1.256 3.281 1.256 4.538 0l3.062-3.063h9.169c0.831 0 1.5 0.669 1.5 1.5zM24.25 29c0-0.688-0.563-1.25-1.25-1.25s-1.25 0.563-1.25 1.25c0 0.688 0.563 1.25 1.25 1.25s1.25-0.563 1.25-1.25zM28.25 29c0-0.688-0.563-1.25-1.25-1.25s-1.25 0.563-1.25 1.25c0 0.688 0.563 1.25 1.25 1.25s1.25-0.563 1.25-1.25z"></path>
</symbol>
<symbol id="icon-right-arrow-modal" viewBox="0 0 32 32">
<path d="M7.381 29.181c0.216 0.112 0.458 0.164 0.701 0.149s0.477-0.096 0.677-0.234l17.333-12c0.177-0.123 0.322-0.287 0.422-0.477s0.152-0.403 0.152-0.619-0.052-0.428-0.152-0.619c-0.1-0.191-0.245-0.355-0.422-0.477l-17.333-12c-0.2-0.138-0.434-0.219-0.677-0.234s-0.485 0.037-0.701 0.15c-0.215 0.113-0.396 0.283-0.522 0.491s-0.193 0.447-0.193 0.69v24c-0 0.243 0.067 0.482 0.192 0.69s0.307 0.378 0.522 0.491z"></path>
</symbol>
<symbol id="icon-twitter" viewBox="0 0 32 32">
<path d="M30.134 5.599c-1.184 0.835-2.495 1.474-3.882 1.892-0.744-0.856-1.734-1.463-2.835-1.738s-2.26-0.206-3.32 0.198c-1.060 0.405-1.97 1.125-2.608 2.064s-0.971 2.051-0.956 3.185v1.236c-2.173 0.056-4.326-0.426-6.267-1.403s-3.611-2.419-4.86-4.198c0 0-4.945 11.127 6.182 16.073-2.546 1.728-5.58 2.595-8.655 2.473 11.127 6.182 24.727 0 24.727-14.218-0.001-0.344-0.034-0.688-0.099-1.026 1.262-1.244 2.152-2.816 2.572-4.537z"></path>
</symbol>
<symbol id="icon-Vector-5" viewBox="0 0 38 32">
<path stroke-linejoin="miter" stroke-linecap="round" stroke-miterlimit="4" stroke-width="7.7267" d="M-6.369 12.211c0 1.754-0.137 3.668 2.637 5.233 2.269 1.28 6.677 1.553 10.673 1.887 5.739 0.48 11.532 0.674 17.303 0.115 1.36-0.132 3.287-0.54 4.511-0.799 2.389-0.506 4.669-0.801 7.395-1.014 2.659-0.207 2.228-1.693 4.067-2.308"></path>
</symbol>
<symbol id="icon-android" viewBox="0 0 28 32">
<path d="M5.26 24.204c0 0.836 0.708 1.518 1.578 1.518h1.804v4.3c0 1.089 0.908 1.979 2.023 1.979 1.119 0 2.023-0.886 2.023-1.979v-4.303h3.149v4.3c0 1.089 0.908 1.979 2.023 1.979 1.119 0 2.023-0.886 2.023-1.979v-4.3h1.804c0.871 0 1.578-0.682 1.578-1.518v-14.114h-18.005v14.117zM18.49 2.773l1.663-2.321c0.096-0.136 0.074-0.318-0.056-0.407-0.13-0.086-0.315-0.043-0.411 0.093l-1.726 2.414c-1.137-0.432-2.404-0.671-3.734-0.671s-2.597 0.239-3.734 0.671l-1.726-2.411c-0.096-0.136-0.282-0.182-0.411-0.093-0.13 0.086-0.152 0.264-0.056 0.407l1.663 2.321c-2.645 1.186-4.497 3.432-4.735 6.057h18.005c-0.245-2.628-2.101-4.875-4.742-6.060zM10.425 6.433c-0.197 0-0.39-0.056-0.554-0.162s-0.292-0.256-0.367-0.431c-0.075-0.176-0.095-0.369-0.057-0.555s0.133-0.358 0.273-0.492 0.317-0.226 0.51-0.263c0.193-0.037 0.394-0.018 0.576 0.055s0.338 0.196 0.447 0.354c0.11 0.158 0.168 0.344 0.168 0.534-0.001 0.255-0.106 0.499-0.293 0.679s-0.44 0.281-0.704 0.282zM18.145 6.433c-0.197 0-0.39-0.056-0.554-0.162s-0.292-0.256-0.367-0.431c-0.075-0.176-0.095-0.369-0.057-0.555s0.133-0.358 0.273-0.492 0.317-0.226 0.51-0.263c0.193-0.037 0.394-0.018 0.576 0.055s0.338 0.196 0.447 0.354 0.168 0.344 0.168 0.534c-0.001 0.255-0.106 0.499-0.293 0.679s-0.44 0.281-0.704 0.282zM26.421 10.030c-1.119 0-2.023 0.886-2.023 1.979v7.728c0 1.089 0.908 1.979 2.023 1.979 1.119 0 2.023-0.886 2.023-1.979v-7.732c0.004-1.093-0.9-1.975-2.023-1.975zM2.022 10.030c-1.119 0-2.023 0.886-2.023 1.979v7.728c0 1.089 0.908 1.979 2.023 1.979 1.119 0 2.023-0.886 2.023-1.979v-7.732c0-1.093-0.908-1.975-2.023-1.975z"></path>
</symbol>
<symbol id="icon-ant-design_file-text-filled" viewBox="0 0 32 32">
<path d="M26.706 9.022c0.187 0.188 0.294 0.441 0.294 0.706v19.272c0 0.553-0.447 1-1 1h-20c-0.553 0-1-0.447-1-1v-26c0-0.553 0.447-1 1-1h13.272c0.266 0 0.522 0.106 0.709 0.294l6.725 6.728zM24.694 10.188l-5.881-5.881v5.881h5.881zM10 15.063c-0.066 0-0.13 0.026-0.177 0.073s-0.073 0.11-0.073 0.177v1.5c0 0.066 0.026 0.13 0.073 0.177s0.11 0.073 0.177 0.073h12c0.066 0 0.13-0.026 0.177-0.073s0.073-0.11 0.073-0.177v-1.5c0-0.066-0.026-0.13-0.073-0.177s-0.11-0.073-0.177-0.073h-12zM10 19.312c-0.066 0-0.13 0.026-0.177 0.073s-0.073 0.11-0.073 0.177v1.5c0 0.066 0.026 0.13 0.073 0.177s0.11 0.073 0.177 0.073h5.75c0.066 0 0.13-0.026 0.177-0.073s0.073-0.11 0.073-0.177v-1.5c0-0.066-0.026-0.13-0.073-0.177s-0.11-0.073-0.177-0.073h-5.75z"></path>
</symbol>
<symbol id="icon-apple" viewBox="0 0 36 32">
<path d="M26.408 0c-3.734 0-5.312 1.794-7.913 1.794-2.666 0-4.7-1.781-7.936-1.781-3.167 0-6.545 1.947-8.69 5.264-3.012 4.677-2.501 13.486 2.377 20.991 1.745 2.686 4.075 5.699 7.131 5.732h0.056c2.656 0 3.445-1.751 7.101-1.772h0.056c3.601 0 4.323 1.761 6.968 1.761h0.056c3.056-0.033 5.511-3.371 7.256-6.047 1.256-1.925 1.723-2.891 2.686-5.068-7.056-2.697-8.19-12.768-1.211-16.63-2.13-2.686-5.123-4.241-7.945-4.241l0.009-0.004z"></path>
</symbol>
<symbol id="icon-apple2" viewBox="0 0 28 32">
<path d="M27.741 0c-7.255 0.484-15.719 5.021-20.676 10.945-4.498 5.368-8.198 13.332-6.747 21.055h0.58c7.726 0 15.634-4.57 20.253-10.425 4.45-5.573 7.823-13.472 6.59-21.575z"></path>
</symbol>
<symbol id="icon-arrow-right" viewBox="0 0 32 32">
<path d="M9.6 24l8-8-8-8 1.6-3.2 11.2 11.2-11.2 11.2-1.6-3.2z"></path>
</symbol>
<symbol id="icon-Burger" viewBox="0 0 52 32">
<path fill="none" stroke="#fff" style="stroke: var(--color1, #fff)" stroke-linejoin="miter" stroke-linecap="round" stroke-miterlimit="4" stroke-width="4" d="M2 2h48"></path>
<path fill="none" stroke="#fff" style="stroke: var(--color1, #fff)" stroke-linejoin="miter" stroke-linecap="round" stroke-miterlimit="4" stroke-width="4" d="M2 16h48"></path>
<path fill="none" stroke="#fff" style="stroke: var(--color1, #fff)" stroke-linejoin="miter" stroke-linecap="round" stroke-miterlimit="4" stroke-width="4" d="M2 30h48"></path>
</symbol>
<symbol id="icon-cib_linkedin-in" viewBox="0 0 32 32">
<path d="M8.268 28h-5.805v-18.694h5.805v18.694zM5.362 6.756c-1.856 0-3.362-1.538-3.362-3.394 0-0.892 0.354-1.747 0.985-2.377s1.486-0.985 2.377-0.985c0.892 0 1.747 0.354 2.377 0.985s0.985 1.486 0.985 2.377c0 1.856-1.506 3.394-3.362 3.394zM29.994 28h-5.792v-9.1c0-2.169-0.044-4.95-3.018-4.95-3.018 0-3.481 2.356-3.481 4.794v9.256h-5.799v-18.694h5.567v2.55h0.081c0.775-1.469 2.668-3.019 5.492-3.019 5.875 0 6.955 3.869 6.955 8.894v10.269h-0.005z"></path>
</symbol>
<symbol id="icon-Ellipse-11" viewBox="0 0 27 32">
<path fill="none" stroke="#fff" style="stroke: var(--color1, #fff)" stroke-linejoin="miter" stroke-linecap="butt" stroke-miterlimit="4" stroke-width="5.3333" d="M3.323 15.87c0 7.485 5.129 12.832 10.632 12.832s10.632-5.347 10.632-12.832c0-7.484-5.129-12.832-10.632-12.832s-10.632 5.347-10.632 12.832z"></path>
</symbol>
<symbol id="icon-Ellipse-19" viewBox="0 0 38 32">
<path fill="#7d55ff" style="fill: var(--color4, #7d55ff)" opacity="0.3" d="M20.709 24.613c-6.995 2.678-13.475 1-14.473-3.749s3.863-10.77 10.858-13.449c6.995-2.678 13.475-1 14.473 3.749s-3.863 10.77-10.858 13.449z"></path>
</symbol>
<symbol id="icon-Ellipse-20" viewBox="0 0 34 32">
<path d="M22.417 23.917c8.147-2.19 14.531-7.519 14.26-11.903s-7.096-6.161-15.244-3.971c-8.147 2.19-14.531 7.519-14.26 11.903s7.097 6.161 15.244 3.971z"></path>
</symbol>
<symbol id="icon-Ellipse-23" viewBox="0 0 26 32">
<path fill="#d9d9d9" style="fill: var(--color6, #d9d9d9)" d="M6.016 23.102c-0.534-0.429 1.587-3.958 4.737-7.883s6.138-6.758 6.672-6.329c0.534 0.429-1.587 3.958-4.737 7.883s-6.138 6.758-6.672 6.329z"></path>
<path fill="#00c5eb" style="fill: var(--color5, #00c5eb)" opacity="0.5" d="M6.016 23.102c-0.534-0.429 1.587-3.958 4.737-7.883s6.138-6.758 6.672-6.329c0.534 0.429-1.587 3.958-4.737 7.883s-6.138 6.758-6.672 6.329z"></path>
</symbol>
<symbol id="icon-Ellipse-24" viewBox="0 0 30 32">
<path fill="#7d55ff" style="fill: var(--color4, #7d55ff)" opacity="0.5" d="M10.809 21.224c-0.645-0.517 0.713-3.28 3.033-6.169s4.723-4.813 5.368-4.295c0.645 0.518-0.713 3.28-3.033 6.169s-4.723 4.813-5.368 4.295z"></path>
</symbol>
<symbol id="icon-ep_close" viewBox="0 0 32 32">
<path d="M23.884 6.706l-7.884 7.884-7.884-7.884c-0.19-0.174-0.439-0.267-0.696-0.261s-0.502 0.11-0.684 0.292c-0.182 0.182-0.286 0.427-0.292 0.684s0.088 0.506 0.261 0.696l7.88 7.884-7.882 7.882c-0.096 0.092-0.173 0.202-0.226 0.324s-0.081 0.253-0.083 0.386 0.023 0.265 0.073 0.388c0.050 0.123 0.124 0.235 0.218 0.329s0.206 0.169 0.329 0.219 0.255 0.075 0.388 0.074c0.133-0.002 0.264-0.029 0.386-0.082s0.232-0.13 0.324-0.226l7.886-7.882 7.884 7.884c0.19 0.174 0.439 0.267 0.696 0.262s0.502-0.11 0.684-0.292c0.182-0.182 0.286-0.427 0.292-0.684s-0.088-0.506-0.262-0.696l-7.884-7.884 7.884-7.886c0.096-0.092 0.173-0.202 0.226-0.324s0.081-0.253 0.083-0.386c0.002-0.133-0.023-0.265-0.073-0.388s-0.124-0.235-0.218-0.329c-0.094-0.094-0.206-0.169-0.329-0.219s-0.255-0.075-0.388-0.074-0.264 0.029-0.386 0.082c-0.122 0.053-0.232 0.13-0.324 0.226v0.002z"></path>
</symbol>
<symbol id="icon-display01" viewBox="0 0 169 32">
<path stroke-linejoin="miter" stroke-linecap="butt" stroke-miterlimit="10" stroke-width="9.1429" stroke="#000" d="M16.889 7.826h135.368c4.822 0 8.731 4.244 8.731 9.48s-3.91 9.48-8.731 9.48h-135.368c-4.822 0-8.731-4.244-8.731-9.48s3.909-9.48 8.731-9.48z"></path>
</symbol>
<symbol id="icon-display1" viewBox="0 0 14 32">
<path fill="#fff" style="fill: var(--color1, #fff)" d="M0.081 2.017v27.965c0 0.098 0.007 0.195 0.020 0.29 0.004 0.023 0.007 0.047 0.011 0.070 0.021 0.118 0.051 0.231 0.091 0.34 0.008 0.022 0.016 0.045 0.025 0.067 0.056 0.137 0.126 0.267 0.209 0.386 0.008 0.011 0.016 0.023 0.024 0.034 0.057 0.079 0.121 0.152 0.188 0.221 0.027 0.028 0.056 0.054 0.085 0.079 0.010 0.010 0.021 0.018 0.031 0.027 0.031 0.026 0.063 0.051 0.096 0.076 0.002 0.002 0.004 0.004 0.006 0.005 0.020 0.014 0.040 0.028 0.061 0.042 0.023 0.015 0.046 0.029 0.069 0.044s0.047 0.027 0.071 0.040c0.012 0.006 0.024 0.013 0.036 0.018s0.024 0.013 0.036 0.018c0.037 0.018 0.074 0.033 0.112 0.048 0.025 0.010 0.051 0.019 0.076 0.028 0.013 0.004 0.026 0.009 0.039 0.013 0.039 0.011 0.079 0.022 0.119 0.031 0.013 0.003 0.026 0.006 0.040 0.009s0.027 0.005 0.040 0.007 0.055 0.009 0.082 0.012c0.019 0.003 0.039 0.004 0.058 0.006 0.016 0.001 0.032 0.002 0.049 0.003 0.030 0.002 0.060 0.003 0.091 0.003h10.737c0.031 0 0.062-0.001 0.092-0.003 0.016-0.001 0.032-0.002 0.049-0.003 0.032-0.003 0.063-0.006 0.094-0.010-0.012 0.001-0.024 0.002-0.036 0.004 0.88-0.108 1.566-0.92 1.566-1.904v-27.965c0-1.023-0.742-1.861-1.673-1.913h-0.001c-0.030-0.002-0.060-0.003-0.091-0.003h-10.737c-0.031 0-0.060 0.001-0.091 0.003h-0c-0.016 0.001-0.032 0.002-0.049 0.003s-0.032 0.003-0.047 0.004c-0.885 0.102-1.578 0.918-1.578 1.906l-0 0z"></path>
</symbol>
<symbol id="icon-display2" viewBox="0 0 15 32">
<path fill="#fff" style="fill: var(--color1, #fff)" d="M2.056 0.079h10.577c1.092 0 1.977 0.961 1.977 2.146v27.549c0 1.185-0.885 2.146-1.977 2.146h-10.577c-1.092 0-1.977-0.961-1.977-2.146v-27.549c0-1.185 0.885-2.146 1.977-2.146zM0.878 31.161c0.027 0.027 0.055 0.053 0.084 0.078 0.010 0.009 0.020 0.018 0.031 0.026 0.031 0.026 0.062 0.051 0.094 0.074 0.002 0.002 0.004 0.003 0.006 0.005 0.020 0.014 0.040 0.028 0.060 0.041 0.022 0.015 0.045 0.029 0.068 0.043s0.046 0.027 0.070 0.039c0.012 0.006 0.024 0.013 0.035 0.018s0.024 0.013 0.036 0.018c0.036 0.017 0.073 0.033 0.11 0.048 0.025 0.010 0.050 0.019 0.075 0.027 0.013 0.004 0.026 0.009 0.038 0.013 0.039 0.011 0.078 0.022 0.117 0.031 0.013 0.003 0.026 0.006 0.039 0.009s0.027 0.005 0.040 0.007 0.054 0.009 0.081 0.012c0.019 0.003 0.038 0.004 0.057 0.006 0.016 0.001 0.032 0.002 0.048 0.003 0.030 0.002 0.059 0.003 0.090 0.003h10.577c0.031 0 0.061-0.001 0.090-0.003 0.016-0.001 0.032-0.002 0.048-0.003 0.031-0.003 0.062-0.006 0.093-0.009-0.012 0.001-0.024 0.002-0.035 0.003 0.867-0.106 1.543-0.907 1.543-1.876v-27.549c0-1.008-0.731-1.833-1.648-1.885h-0.001c-0.029-0.002-0.059-0.003-0.089-0.003h-10.577c-0.030 0-0.059 0.001-0.089 0.003h-0c-0.016 0.001-0.032 0.002-0.048 0.003s-0.031 0.003-0.047 0.004c-0.872 0.1-1.554 0.904-1.554 1.877v27.549c0 0.097 0.007 0.192 0.020 0.286 0.004 0.023 0.007 0.046 0.011 0.069 0.020 0.116 0.051 0.228 0.090 0.335 0.008 0.022 0.016 0.044 0.025 0.066 0.055 0.135 0.124 0.263 0.206 0.38 0.008 0.011 0.016 0.022 0.024 0.033 0.056 0.078 0.119 0.15 0.185 0.218h-0z"></path>
</symbol>
<symbol id="icon-display3" viewBox="0 0 14 32">
<path fill="#fff" style="fill: var(--color1, #fff)" d="M1.183 0.133h0.010l0.015-0.002c0.018-0.001 0.034-0.001 0.050-0.001h1.623c0.093 0.005 0.168 0.083 0.177 0.183 0 0.007 0.001 0.014 0.001 0.021v0.003c0.022 0.516 0.415 0.927 0.896 0.927h5.854c0.481 0 0.873-0.411 0.896-0.927v-0.003c0-0.007 0-0.014 0.001-0.021 0.009-0.1 0.084-0.177 0.177-0.183h1.623c0.015 0 0.032 0 0.050 0.001l0.015 0.002h0.010c0.591 0.042 1.052 0.576 1.052 1.221v29.293c0 0.634-0.456 1.17-1.037 1.219-0.006 0-0.011 0.001-0.015 0.001h-0.004l-0.003 0h-0.007l-0.002 0c-0.020 0.001-0.039 0.002-0.059 0.002h-11.246c-0.020 0-0.039-0.001-0.059-0.002l-0.002-0h-0.007l-0.003-0h-0.004c-0.005-0-0.009-0.001-0.015-0.001-0.581-0.050-1.037-0.586-1.037-1.219v-29.293c0-0.645 0.461-1.179 1.052-1.221l0 0z"></path>
</symbol>
<symbol id="icon-display4" viewBox="0 0 14 32">
<path d="M1.105 0.049h0.010l0.015-0.002c0.018-0.001 0.035-0.001 0.050-0.001h1.631c0.093 0.005 0.169 0.083 0.178 0.184 0 0.007 0.001 0.014 0.001 0.021v0.003c0.022 0.519 0.417 0.932 0.9 0.932h5.885c0.483 0 0.878-0.413 0.9-0.932v-0.003c0-0.007 0-0.014 0.001-0.021 0.009-0.1 0.085-0.178 0.178-0.184h1.631c0.015 0 0.032 0 0.050 0.001l0.015 0.002h0.010c0.594 0.042 1.058 0.579 1.058 1.227v29.448c0 0.637-0.458 1.176-1.043 1.226-0.006 0-0.011 0.001-0.015 0.001h-0.004l-0.003 0h-0.007l-0.002 0c-0.020 0.001-0.039 0.002-0.059 0.002h-11.306c-0.020 0-0.039-0.001-0.059-0.002l-0.002-0h-0.007l-0.003-0h-0.004c-0.005-0-0.009-0.001-0.015-0.001-0.584-0.050-1.043-0.589-1.043-1.226v-29.449c0-0.648 0.464-1.185 1.058-1.227l0 0z"></path>
</symbol>
<symbol id="icon-display00" viewBox="0 0 37 32">
<path stroke-linejoin="miter" stroke-linecap="butt" stroke-miterlimit="10" stroke-width="9.1429" stroke="#000" d="M8.863 16.546c0-5.656 4.223-10.241 9.432-10.241s9.432 4.585 9.432 10.241c0 5.656-4.223 10.241-9.432 10.241s-9.432-4.585-9.432-10.241z"></path>
</symbol>
<symbol id="icon-Group-5" viewBox="0 0 27 32">
<path fill="#fff" style="fill: var(--color1, #fff)" d="M24.099 20.899c0 0.815 0.567 1.476 1.266 1.476s1.266-0.661 1.266-1.476c0-0.815-0.567-1.476-1.266-1.476s-1.266 0.661-1.266 1.476z"></path>
<path fill="#fff" style="fill: var(--color1, #fff)" d="M24.099 11.365c0 0.815 0.567 1.476 1.266 1.476s1.266-0.661 1.266-1.476c0-0.815-0.567-1.476-1.266-1.476s-1.266 0.661-1.266 1.476z"></path>
<path fill="#fff" style="fill: var(--color1, #fff)" d="M24.099 1.831c0 0.815 0.567 1.476 1.266 1.476s1.266-0.661 1.266-1.476c0-0.815-0.567-1.476-1.266-1.476s-1.266 0.661-1.266 1.476z"></path>
<path fill="#fff" style="fill: var(--color1, #fff)" d="M24.099 30.433c0 0.815 0.567 1.476 1.266 1.476s1.266-0.661 1.266-1.476c0-0.815-0.567-1.476-1.266-1.476s-1.266 0.661-1.266 1.476z"></path>
<path fill="#fff" style="fill: var(--color1, #fff)" d="M16.107 20.899c0 0.815 0.567 1.476 1.266 1.476s1.266-0.661 1.266-1.476c0-0.815-0.567-1.476-1.266-1.476s-1.266 0.661-1.266 1.476z"></path>
<path fill="#fff" style="fill: var(--color1, #fff)" d="M16.107 11.365c0 0.815 0.567 1.476 1.266 1.476s1.266-0.661 1.266-1.476c0-0.815-0.567-1.476-1.266-1.476s-1.266 0.661-1.266 1.476z"></path>
<path fill="#fff" style="fill: var(--color1, #fff)" d="M16.107 1.831c0 0.815 0.567 1.476 1.266 1.476s1.266-0.661 1.266-1.476c0-0.815-0.567-1.476-1.266-1.476s-1.266 0.661-1.266 1.476z"></path>
<path fill="#fff" style="fill: var(--color1, #fff)" d="M16.107 30.433c0 0.815 0.567 1.476 1.266 1.476s1.266-0.661 1.266-1.476c0-0.815-0.567-1.476-1.266-1.476s-1.266 0.661-1.266 1.476z"></path>
<path fill="#fff" style="fill: var(--color1, #fff)" d="M8.114 20.899c0 0.815 0.567 1.476 1.266 1.476s1.266-0.661 1.266-1.476c0-0.815-0.567-1.476-1.266-1.476s-1.266 0.661-1.266 1.476z"></path>
<path fill="#fff" style="fill: var(--color1, #fff)" d="M8.114 11.365c0 0.815 0.567 1.476 1.266 1.476s1.266-0.661 1.266-1.476c0-0.815-0.567-1.476-1.266-1.476s-1.266 0.661-1.266 1.476z"></path>
<path fill="#fff" style="fill: var(--color1, #fff)" d="M8.114 1.831c0 0.815 0.567 1.476 1.266 1.476s1.266-0.661 1.266-1.476c0-0.815-0.567-1.476-1.266-1.476s-1.266 0.661-1.266 1.476z"></path>
<path fill="#fff" style="fill: var(--color1, #fff)" d="M8.114 30.433c0 0.815 0.567 1.476 1.266 1.476s1.266-0.661 1.266-1.476c0-0.815-0.567-1.476-1.266-1.476s-1.266 0.661-1.266 1.476z"></path>
<path fill="#fff" style="fill: var(--color1, #fff)" d="M0.122 20.899c0 0.815 0.567 1.476 1.266 1.476s1.266-0.661 1.266-1.476c0-0.815-0.567-1.476-1.266-1.476s-1.266 0.661-1.266 1.476z"></path>
<path fill="#fff" style="fill: var(--color1, #fff)" d="M0.122 11.365c0 0.815 0.567 1.476 1.266 1.476s1.266-0.661 1.266-1.476c0-0.815-0.567-1.476-1.266-1.476s-1.266 0.661-1.266 1.476z"></path>
<path fill="#fff" style="fill: var(--color1, #fff)" d="M0.122 1.831c0 0.815 0.567 1.476 1.266 1.476s1.266-0.661 1.266-1.476c0-0.815-0.567-1.476-1.266-1.476s-1.266 0.661-1.266 1.476z"></path>
<path fill="#fff" style="fill: var(--color1, #fff)" d="M0.122 30.433c0 0.815 0.567 1.476 1.266 1.476s1.266-0.661 1.266-1.476c0-0.815-0.567-1.476-1.266-1.476s-1.266 0.661-1.266 1.476z"></path>
</symbol>
<symbol id="icon-Ellipse-11" viewBox="0 0 27 32">
<path stroke-linejoin="miter" stroke-linecap="butt" stroke-miterlimit="4" d="M3.323 15.87c0 7.485 5.129 12.832 10.632 12.832s10.632-5.347 10.632-12.832c0-7.484-5.129-12.832-10.632-12.832s-10.632 5.347-10.632 12.832z"></path>
</symbol>
<linearGradient id="paint0_linear_148_210" x1="154.317" y1="376.269" x2="-16.326" y2="10.6975" gradientUnits="userSpaceOnUse">
<stop stop-color="#5300A6"/>
<stop offset="1" stop-color="#A889FF"/>
</linearGradient>
</defs>
</svg>
